<svg xmlns="http://www.w3.org/2000/svg" xmlns:xlink="http://www.w3.org/1999/xlink" version="1.1" x="0px" y="0px" viewBox="0 0 32 40" fill="#363ff1" xml:space="preserve"><g><path d="M16.8227539,2.4067185c-0.3730469-0.5422914-1.2724609-0.5422914-1.6455078,0   C14.6464844,3.1765962,12,7.1126142,12,8.9905672C12,11.201335,13.7944336,13,16,13c2.2060547,0,4-1.798665,4-4.0094328   C20,7.1126142,17.3535156,3.1765962,16.8227539,2.4067185z"/><path d="M7,22c0-1.8490601,0.5617676-3.5687866,1.5219116-5H4v-1c0-0.5522461-0.4477539-1-1-1s-1,0.4477539-1,1v12   c0,0.5522461,0.4477539,1,1,1s1-0.4477539,1-1v-1h4.5219116C7.5617676,25.5687866,7,23.8490601,7,22z"/><path d="M25,22c0-1.8490601-0.5617676-3.5687866-1.5219116-5H28v-1c0-0.5522461,0.4477539-1,1-1s1,0.4477539,1,1v12   c0,0.5522461-0.4477539,1-1,1s-1-0.4477539-1-1v-1h-4.5219116C24.4382324,25.5687866,25,23.8490601,25,22z"/><path d="M16,14c-4.4111328,0-8,3.5888672-8,8s3.5888672,8,8,8s8-3.5888672,8-8S20.4111328,14,16,14z M16,29   c-3.8598633,0-7-3.1401367-7-7s3.1401367-7,7-7c3.859375,0,7,3.1401367,7,7S19.859375,29,16,29z"/><path d="M19.5355225,26.2426147c-0.1954346-0.1953735-0.1954346-0.5116577,0-0.7070923s0.5117188-0.1954346,0.7070923,0   l0.3348389,0.3348389c0.7842407-0.9260864,1.2909546-2.0914917,1.3972168-3.3703613H21.5c-0.2763672,0-0.5-0.2236328-0.5-0.5   s0.2236328-0.5,0.5-0.5h0.4746704c-0.1062622-1.2788696-0.6129761-2.4442749-1.3972168-3.3703613l-0.3348389,0.3348389   c-0.1953735,0.1954346-0.5116577,0.1954346-0.7070923,0s-0.1954346-0.5117188,0-0.7070923l0.3348389-0.3348389   C18.9442749,16.6383057,17.7788696,16.1315918,16.5,16.0253296V16.5c0,0.2763672-0.2236328,0.5-0.5,0.5s-0.5-0.2236328-0.5-0.5   v-0.4746704c-1.2788696,0.1062622-2.4442749,0.6129761-3.3703613,1.3972168l0.3348389,0.3348389   c0.1954346,0.1953735,0.1954346,0.5116577,0,0.7070923s-0.5117188,0.1954346-0.7070923,0l-0.3348389-0.3348389   C10.6383057,19.0557251,10.1315918,20.2211304,10.0253296,21.5H10.5c0.2763672,0,0.5,0.2236328,0.5,0.5s-0.2236328,0.5-0.5,0.5   h-0.4746704c0.1062622,1.2788696,0.6129761,2.4442749,1.3972168,3.3703613l0.3348389-0.3348389   c0.1953735-0.1954346,0.5116577-0.1954346,0.7070923,0s0.1954346,0.5117188,0,0.7070923l-0.3348389,0.3348389   C13.175415,27.4630737,14.5253906,28,16,28s2.824585-0.5369263,3.8703613-1.4225464L19.5355225,26.2426147z M18.8535156,19.8535156   l-1.90271,1.90271C16.9714355,21.8362427,17,21.9135132,17,22c0,0.5523071-0.4476929,1-1,1s-1-0.4476929-1-1s0.4476929-1,1-1   c0.0864868,0,0.1637573,0.0285645,0.2437744,0.0491943l1.90271-1.90271c0.1953125-0.1953125,0.5117188-0.1953125,0.7070313,0   S19.0488281,19.6582031,18.8535156,19.8535156z"/></g></svg>